<svg id="Capa_1" enable-background="new 0 0 512 512" height="512" viewBox="0 0 512 512" width="512" xmlns="http://www.w3.org/2000/svg"><g><g><path clip-rule="evenodd" d="m90.889 282.189-4.394-69.163-.908-14.178c-.791-12.333-11.512-21.795-23.845-21.004-3.896.264-7.47 1.465-10.546 3.427v126.573c20.65 18.791 39.693 9.623 39.693-25.655z" fill="#ffbc85" fill-rule="evenodd"/></g><g><path clip-rule="evenodd" d="m425.534 213.026-4.394 69.163c14.626 36.652 40.156 23.441 42.441 36.652l-2.749-137.57c-3.076-1.963-6.679-3.164-10.546-3.427-12.332-.791-23.083 8.671-23.874 21.004z" fill="#ffbc85" fill-rule="evenodd"/></g><g><path clip-rule="evenodd" d="m332.968 392.363-3.955 52.407 46.144 21.043 49.351-21.043c39.429-36.354 69.776-81.437 73.936-146.587l7.353-116.004c.791-12.333-8.642-23.054-21.003-23.845-12.332-.791-23.054 8.671-23.845 21.004l-.117 1.933-7.47 117.41c-2.285-13.212-16.902-22.029-32.223-16.493-2.988 1.055-5.947 2.666-8.876 4.892l-23.815 19.891-29.996 25.046c-21.735 18.134-23.434 33.308-25.484 60.346z" fill="#ffe5c1" fill-rule="evenodd"/></g><g><path clip-rule="evenodd" d="m153.576 332.018-29.996-25.046-23.815-19.891c-2.929-2.226-5.917-3.837-8.876-4.892-15.32-5.537-29.967 3.281-32.222 16.493l-7.47-117.41-.117-1.933c-.791-12.333-11.542-21.795-23.874-21.004s-21.795 11.511-21.004 23.844l7.382 116.004c4.13 65.15 34.478 110.233 73.907 146.587l44.887 12.63 50.638-12.63-3.955-52.407c-2.05-27.038-3.778-42.212-25.485-60.345z" fill="#ffe5c1" fill-rule="evenodd"/></g><g><path clip-rule="evenodd" d="m111.453 322.702 29.996 25.046c15.965 13.358 15.818 24.05 17.869 51.089l3.252 45.933h20.447l-3.955-52.407c-2.051-27.038-3.779-42.213-25.485-60.346l-29.996-25.046-23.815-19.891c-2.929-2.226-5.917-3.837-8.876-4.892-13.533-4.892-26.569 1.435-30.963 12.098 11.161-4.189 21.882 4.511 32.603 12.626z" fill="#fed1a3" fill-rule="evenodd"/></g><g><path clip-rule="evenodd" d="m183.016 444.77h-95.525-23.698c-5.302 0-9.637 4.365-9.637 9.667v47.925c0 5.302 4.335 9.638 9.637 9.638h134.807c5.302 0 9.637-4.336 9.637-9.638v-47.925c0-5.302-4.335-9.667-9.637-9.667z" fill="#eb5468" fill-rule="evenodd"/></g><g><path clip-rule="evenodd" d="m313.429 444.77c-5.302 0-9.637 4.365-9.637 9.667v47.925c0 5.302 4.335 9.638 9.637 9.638h134.807c5.302 0 9.637-4.336 9.637-9.638v-47.925c0-5.302-4.335-9.667-9.637-9.667h-23.727-95.496z" fill="#eb5468" fill-rule="evenodd"/></g><g><path clip-rule="evenodd" d="m326.992 282.452c39.224-39.225 39.224-102.793 0-141.988-39.194-39.195-102.76-39.195-141.984 0-39.194 39.195-39.194 102.763 0 141.988 2.754 2.754 5.624 5.302 8.612 7.646h124.789c2.959-2.343 5.829-4.921 8.583-7.646z" fill="#9fd4fe" fill-rule="evenodd"/></g><g><path clip-rule="evenodd" d="m281.617 233.239c-10.575-13.915-32.017-14.208-51.204 0-21.648 9.813-36.792 31.667-36.792 56.86 36.441 29.001 88.348 29.001 124.789 0-.001-25.194-15.146-47.047-36.793-56.86z" fill="#eb5468" fill-rule="evenodd"/></g><g><path clip-rule="evenodd" d="m164.473 110.292.557-26.541 15.145-21.824-25.075-8.729-16.053-21.15-16.053 21.15-25.075 8.729 15.145 21.824.556 26.541 25.427-7.675z" fill="#ffd772" fill-rule="evenodd"/></g><g><path clip-rule="evenodd" d="m230.032 51.675.556 26.54 25.427-7.646 25.426 7.646.557-26.54 15.144-21.795-25.075-8.759-16.052-21.121-16.082 21.121-25.046 8.759z" fill="#ffd772" fill-rule="evenodd"/></g><g><path clip-rule="evenodd" d="m331.855 61.927 15.115 21.824.586 26.541 25.426-7.675 25.397 7.675.586-26.541 15.145-21.824-25.075-8.729-16.053-21.15-16.082 21.15z" fill="#ffd772" fill-rule="evenodd"/></g><g><path clip-rule="evenodd" d="m58.666 298.681-7.586-119.343c-.791-12.333-11.542-21.795-23.874-21.004-10.311.644-18.63 8.29-20.593 17.986 28.619-8.73 26.364 5.859 27.36 21.648l4.306 88.702c1.025 21.355 5.214 35.153 11.717 41.656 10.018 9.989 37.114 39.752 46.137 48.335 9.022 8.554 26.012 5.654 15.115-9.608-9.022-8.583-32.955-34.04-42.973-44.029-6.914-6.913-9.257-13.152-9.609-24.343z" fill="#fed1a3" fill-rule="evenodd"/></g><g><path clip-rule="evenodd" d="m172.207 454.437v47.925c0 5.302-4.335 9.638-9.637 9.638h36.03c5.302 0 9.637-4.336 9.637-9.638v-47.925c0-5.302-4.335-9.667-9.637-9.667h-15.584-13.328-7.118c5.301 0 9.637 4.365 9.637 9.667z" fill="#e5384f" fill-rule="evenodd"/></g><g><path clip-rule="evenodd" d="m398.848 444.77h25.661c39.429-36.354 69.776-81.437 73.936-146.587l7.353-116.004c.703-11.044-6.825-20.828-17.283-23.289-.791 16.112-9.96 134.577-11.629 145.327-2.461 15.555-5.126 35.534-12.069 51.968-14.237 33.864-39.195 64.037-65.969 88.585z" fill="#fed1a3" fill-rule="evenodd"/></g><g><path clip-rule="evenodd" d="m295.18 138.502c33.043 33.014 38.228 83.341 15.613 121.834 4.863 8.847 7.616 19.012 7.616 29.763 2.959-2.344 5.829-4.921 8.583-7.646 39.224-39.225 39.224-102.793 0-141.988-22.087-22.088-51.878-31.725-80.703-28.942 17.928 4.042 34.947 13.006 48.891 26.979z" fill="#85beef" fill-rule="evenodd"/></g><g><path clip-rule="evenodd" d="m165.03 83.751 15.145-21.824-25.075-8.73-16.053-21.15-5.771 7.616c6.884 20.535 7.616 43.091 2.138 64.066l3.632-1.113 25.426 7.675z" fill="#fbba58" fill-rule="evenodd"/></g><g><path clip-rule="evenodd" d="m253.583 3.193c6.855 22.058 6.679 46.314-.527 68.255l2.959-.879 25.426 7.646.557-26.54 15.145-21.795-25.075-8.759-16.053-21.121z" fill="#fbba58" fill-rule="evenodd"/></g><g><path clip-rule="evenodd" d="m368.12 38.434c6.474 21.238 6.474 44.439-.059 65.677l4.921-1.494 25.397 7.675.586-26.54 15.145-21.824-25.075-8.73-16.053-21.15z" fill="#fbba58" fill-rule="evenodd"/></g><g><path clip-rule="evenodd" d="m269.987 239.8c15.408 13.856 26.071 36.735 27.829 62.953 7.235-3.31 14.149-7.529 20.593-12.655 0-25.193-15.145-47.046-36.792-56.86-3.457 2.784-7.382 5.01-11.63 6.562z" fill="#e5384f" fill-rule="evenodd"/></g><g><path clip-rule="evenodd" d="m281.617 233.239c9.286-7.47 15.232-18.953 15.232-31.813 0-22.556-18.279-40.836-40.835-40.836s-40.835 18.279-40.835 40.836c0 12.86 5.947 24.343 15.232 31.813 7.001 5.654 15.906 9.023 25.602 9.023 9.698-.001 18.603-3.37 25.604-9.023z" fill="#ffe5c1" fill-rule="evenodd"/></g><g><path clip-rule="evenodd" d="m274.323 197.178c0 12.86-5.947 24.343-15.232 31.813-6.034 4.863-13.475 8.056-21.618 8.847 5.566 2.812 11.864 4.423 18.543 4.423 9.696 0 18.601-3.369 25.602-9.023 9.286-7.47 15.232-18.953 15.232-31.813 0-22.556-18.279-40.836-40.835-40.836-1.348 0-2.695.088-3.984.205 13.211 6.738 22.292 20.506 22.292 36.384z" fill="#fed1a3" fill-rule="evenodd"/></g><g><path clip-rule="evenodd" d="m417.449 502.362c0 5.302-4.335 9.638-9.637 9.638h40.425c5.302 0 9.637-4.336 9.637-9.638v-47.925c0-5.302-4.335-9.667-9.637-9.667h-23.727-16.697c5.302 0 9.637 4.365 9.637 9.667v47.925z" fill="#e5384f" fill-rule="evenodd"/></g><g><path clip-rule="evenodd" d="m422.898 316.756-37.466 39.43c-8.583 9.023-.322 25.222 15.35 10.868 9.022-8.583 32.955-34.04 42.944-44.029 8.349-8.319 10.897-17.02 9.637-24.343-.146-.791-.322-1.582-.557-2.344-3.427-11.747-16.961-19.158-31.168-14.325 21.999 11.073 10.253 25.749 1.26 34.743z" fill="#fed1a3" fill-rule="evenodd"/></g></g></svg>