<svg xmlns="http://www.w3.org/2000/svg" viewBox="0 0 512 512"><defs><style>.cls-1{isolation:isolate;}.cls-2{fill:#ffbc85;}.cls-2,.cls-3,.cls-4,.cls-5,.cls-6{fill-rule:evenodd;}.cls-3{fill:#ffe5c1;}.cls-4{fill:#fed1a3;}.cls-5{fill:#053146;}.cls-6{fill:#3d3d3d;}.cls-7{mix-blend-mode:overlay;}</style></defs><g class="cls-1"><g id="Capa_1" data-name="Capa 1"><path class="cls-2" d="M90.89,282.19,86.5,213l-.91-14.18A22.43,22.43,0,0,0,51.2,181.27V307.84C71.85,326.64,90.89,317.47,90.89,282.19Z"/><path class="cls-2" d="M425.53,213l-4.39,69.16c14.63,36.65,40.16,23.44,42.44,36.65l-2.75-137.57a22.46,22.46,0,0,0-34.42,17.58Z"/><path class="cls-3" d="M333,392.36l-4,52.41,46.15,21,49.35-21c39.43-36.35,69.77-81.44,73.93-146.59l7.36-116A22.47,22.47,0,1,0,461,179.34l-.12,1.93-7.47,117.41c-2.28-13.21-16.9-22-32.22-16.49a32.39,32.39,0,0,0-8.88,4.89L388.45,307l-30,25C336.72,350.15,335,365.33,333,392.36Z"/><path class="cls-3" d="M153.58,332l-30-25L99.76,287.08a32.9,32.9,0,0,0-8.87-4.89c-15.32-5.54-30,3.28-32.22,16.49L51.2,181.27l-.12-1.93A22.48,22.48,0,0,0,6.2,182.18l7.38,116c4.13,65.15,34.48,110.24,73.91,146.59l44.89,12.63L183,444.77l-4-52.41c-2.05-27-3.78-42.21-25.48-60.34Z"/><path class="cls-4" d="M111.45,322.7l30,25.05c16,13.36,15.82,24.05,17.87,51.09l3.25,45.93H183l-4-52.41c-2.05-27-3.78-42.21-25.48-60.34l-30-25L99.77,287.08a32.83,32.83,0,0,0-8.88-4.89c-13.53-4.89-26.57,1.43-31,12.1,11.16-4.19,21.88,4.51,32.6,12.62Z"/><path class="cls-5" d="M183,444.77H63.79a9.68,9.68,0,0,0-9.63,9.67v47.92A9.66,9.66,0,0,0,63.79,512H198.6a9.67,9.67,0,0,0,9.64-9.64V454.44a9.69,9.69,0,0,0-9.64-9.67Z"/><path class="cls-5" d="M313.43,444.77a9.69,9.69,0,0,0-9.64,9.67v47.92a9.67,9.67,0,0,0,9.64,9.64H448.24a9.66,9.66,0,0,0,9.63-9.64V454.44a9.68,9.68,0,0,0-9.63-9.67H313.43Z"/><path class="cls-5" d="M327,282.45a100.4,100.4,0,1,0-142,0,95,95,0,0,0,8.61,7.65H318.41A102.31,102.31,0,0,0,327,282.45Z"/><path class="cls-6" d="M281.62,233.24c-10.58-13.92-32-14.21-51.21,0a62.61,62.61,0,0,0-36.79,56.86,100.37,100.37,0,0,0,124.79,0A62.6,62.6,0,0,0,281.62,233.24Z"/><path class="cls-5" d="M164.47,110.29,165,83.75l15.15-21.82L155.1,53.2l-16-21.15L123,53.2,97.92,61.93l15.14,21.82.56,26.54,25.43-7.67Z"/><path class="cls-5" d="M230,51.67l.56,26.54L256,70.57l25.43,7.64L282,51.67l15.14-21.79-25.07-8.76L256,0,239.93,21.12l-25,8.76Z"/><path class="cls-5" d="M331.86,61.93,347,83.75l.59,26.54L373,102.62l25.4,7.67L399,83.75l15.15-21.82L389,53.2,373,32.05,356.9,53.2Z"/><path class="cls-4" d="M58.67,298.68,51.08,179.34a22.48,22.48,0,0,0-44.47-3C35.23,167.59,33,182.18,34,198l4.31,88.7c1,21.36,5.21,35.15,11.72,41.66,10,10,37.11,39.75,46.13,48.33s26,5.66,15.12-9.61c-9-8.58-33-34-43-44-6.91-6.91-9.25-13.15-9.6-24.34Z"/><g class="cls-7"><path class="cls-5" d="M172.21,454.44v47.92a9.67,9.67,0,0,1-9.64,9.64h36a9.67,9.67,0,0,0,9.64-9.64V454.44a9.7,9.7,0,0,0-9.64-9.67h-36A9.7,9.7,0,0,1,172.21,454.44Z"/></g><path class="cls-4" d="M398.85,444.77h25.66c39.43-36.35,69.78-81.44,73.94-146.59l7.35-116a22.56,22.56,0,0,0-17.28-23.29c-.8,16.11-10,134.58-11.63,145.33-2.46,15.55-5.13,35.53-12.07,52-14.24,33.87-39.2,64-66,88.59Z"/><g class="cls-7"><path class="cls-5" d="M295.18,138.5a100.44,100.44,0,0,1,15.61,121.84,61.55,61.55,0,0,1,7.62,29.76,102.31,102.31,0,0,0,8.58-7.65,100.4,100.4,0,0,0-80.7-170.93A99.82,99.82,0,0,1,295.18,138.5Z"/></g><g class="cls-7"><path class="cls-5" d="M165,83.75l15.15-21.82L155.1,53.2l-16-21.15-5.77,7.61a113.08,113.08,0,0,1,2.13,64.07l3.64-1.11,25.42,7.67Z"/></g><g class="cls-7"><path class="cls-5" d="M253.58,3.19a113.1,113.1,0,0,1-.52,68.26l3-.88,25.42,7.64L282,51.67l15.14-21.79-25.07-8.76L256,0Z"/></g><g class="cls-7"><path class="cls-5" d="M368.12,38.43a113,113,0,0,1-.06,65.68l4.92-1.49,25.4,7.67L399,83.75l15.15-21.82L389,53.2,373,32.05Z"/></g><g class="cls-7"><path class="cls-6" d="M270,239.8c15.4,13.86,26.07,36.74,27.83,62.95a100.16,100.16,0,0,0,20.59-12.65,62.6,62.6,0,0,0-36.79-56.86A41,41,0,0,1,270,239.8Z"/></g><path class="cls-3" d="M281.62,233.24a40.85,40.85,0,1,0-25.61,9A40.75,40.75,0,0,0,281.62,233.24Z"/><path class="cls-4" d="M274.32,197.18a40.88,40.88,0,0,1-36.85,40.66A41.08,41.08,0,0,0,256,242.26a40.84,40.84,0,1,0,0-81.67c-1.34,0-2.69.09-4,.2a40.85,40.85,0,0,1,22.29,36.39Z"/><g class="cls-7"><path class="cls-5" d="M417.45,502.36a9.67,9.67,0,0,1-9.64,9.64h40.43a9.66,9.66,0,0,0,9.63-9.64V454.44a9.69,9.69,0,0,0-9.63-9.67H407.81a9.69,9.69,0,0,1,9.64,9.67v47.92Z"/></g><path class="cls-4" d="M422.9,316.76l-37.47,39.43c-8.58,9-.32,25.22,15.35,10.86,9-8.58,33-34,43-44,8.35-8.32,10.89-17,9.63-24.35a20.4,20.4,0,0,0-.55-2.34c-3.43-11.75-17-19.16-31.17-14.33,22,11.08,10.25,25.75,1.26,34.75Z"/></g></g></svg>